# xmcd
#
# Track frame offsets:
#  150
#  11378
#  20657
#  31622
#  42373
#  54920
#  68130
#  76651
#  89848
#  100032
#  110962
#  121615
#  134624
#  144521
#  159900
#  171249
#
# Disc length: 2451 seconds
#
# Revision: 0
# Processed by: cddbd v1.5.2PL0 Copyright (c) Steve Scherf et al.
# Submitted via: AltoMP3_Maker 3.0
#
DISCID=c8099110
DTITLE=Various Artist - Country Classics Vol17
DYEAR=1900
DGENRE=
TTITLE0=It Wasn't God Who Made Honky Tonk Ange
TTITLE1=Luther Played The Boogie (Luther's Boogie
TTITLE2=Wabash Cannonball
TTITLE3=Alabama Waltz
TTITLE4=Withered Roses
TTITLE5=Til I Can Waltz With You Again
TTITLE6=It's Lonesome
TTITLE7=Treasure Untold
TTITLE8=Silver Bells
TTITLE9=No Help Wanted
TTITLE10=Poison Love
TTITLE11=Tearstains On My Heart
TTITLE12=Lonesome Traveller
TTITLE13=I Gave My Love A Cherry
TTITLE14=The Kid With The Rip In His Pants
TTITLE15=Life Gets Teejus Don't It
EXTD=
EXTT0=
EXTT1=
EXTT2=
EXTT3=
EXTT4=
EXTT5=
EXTT6=
EXTT7=
EXTT8=
EXTT9=
EXTT10=
EXTT11=
EXTT12=
EXTT13=
EXTT14=
EXTT15=
PLAYORDER=
